<svg version="1" xmlns="http://www.w3.org/2000/svg" width="1516" height="1516" viewBox="0 0 1137.000000 1137.000000"><path d="M289.5 17.8c-8 .8-14.5 5.4-17.5 12.3l-2.1 5v310.7c.1 288.3.2 326.4 1.6 333.2.2 1.4.7 4.5 1 7 .9 6.2 4.6 15.2 8.1 19.4 1.6 1.9 5.6 4.8 8.9 6.4 12.7 6.3 20.2 6.9 96.5 7.1 33.8.1 61.6.4 61.9.6.2.3.4 88.6.4 196.2-.1 107.7.2 197.1.4 198.6.3 1.5 1.5 3.3 2.7 3.9 1.4.8 14.2 1.1 40.8 1.2H531l2.3-2.2 2.2-2.3.2-196.7c.1-108.2.2-197.3.2-198 .1-.9 19.7-1.2 94.6-1.2H725v197.4c0 108.6.3 198.2.6 199.1 1.5 3.8 4.6 4.1 42.9 4 20.4-.1 38-.5 39.3-.9 1.2-.4 2.7-1.6 3.2-2.6.7-1.3 1-68.5 1-199.4V719.1l19.8-.3c18.9-.3 19.9-.4 24.2-2.8 6.6-3.7 10.1-9.3 10.7-17.1.4-5.2.1-7.3-1.6-11-5.1-10.8-10.4-12.7-34.8-12.5l-18.3.1V455.7c0-145.6-.3-220.4-1-221.7-.5-1-1.9-2.2-3-2.5-1.2-.4-15.9-.7-32.8-.7-49 .1-45.9-.1-48.2 2.2-2 2-2 3.3-2 222v220l-4.2.1c-5.3.1-181.7 0-183.8 0-1.3-.1-1.5-25.2-1.4-219.7V235.7l-2.1-2.4-2.1-2.5h-38.6c-21.3 0-39.6.3-40.7.7-1.1.3-2.4 2-3 3.8-.6 2.1-.9 81.2-.9 221 .1 119.7-.2 218-.5 218.3-.6.6-58.5.8-94.5.4-30.1-.4-35.9-3.7-38.8-22-.4-2.5-.8-142.7-.9-311.5l-.1-307-2.1-4.6c-1.1-2.5-3.7-5.8-5.6-7.3-4-3-11.6-5.3-16.2-4.8z"/></svg>